<svg clip-rule="evenodd" fill-rule="evenodd" height="173.397mm" image-rendering="optimizeQuality" shape-rendering="geometricPrecision" text-rendering="geometricPrecision" viewBox="0 0 173.397 173.397" width="173.397mm" xmlns="http://www.w3.org/2000/svg" xmlns:xlink="http://www.w3.org/1999/xlink"><linearGradient id="id0" gradientUnits="userSpaceOnUse" x1="25.739" x2="147.659" y1="147.659" y2="25.739"><stop offset="0" stop-color="#8a2387"/><stop offset=".470588" stop-color="#e94057"/><stop offset="1" stop-color="#f27121"/></linearGradient><g id="Layer_x0020_1"><circle cx="86.699" cy="86.699" fill="url(#id0)" r="84.667"/><g id="_380086816" fill="#fff"><path id="_380087752" d="m103.285 73.165c.6218-.9006 1.329-1.8027 2.0036-2.6462-1.5072-1.883-1.6685-4.3957-.514-6.5206 2.7045-4.977 11.2848-5.858 16.4785-6.9628-1.8511 4.9768-3.9752 13.3368-9.2937 15.2856-1.207.4422-2.4681.5007-3.6316.1931-1.078 1.3432-2.2819 2.8659-2.9075 4.0574.6533 1.1458 1.2643 2.315 1.7926 3.4195 8.1735.1937 15.9131 3.5017 21.7105 9.2991 1.7447 1.7447 3.2635 3.6655 4.5403 5.7209h7.6639v-16.617h-12.0828c-1.1204-5.7408-3.3791-11.074-6.5315-15.7558l8.5475-8.5475-11.75-11.75-8.5494 8.5493c-4.6815-3.1515-10.0136-5.4111-15.754-6.531v-12.085h-16.617v12.085c-5.7405 1.12-11.0726 3.3795-15.7541 6.531l-8.5492-8.5492-11.75 11.75 8.549 8.5491c-3.1521 4.6811-5.4114 10.0138-6.5314 15.7543h-12.0843v16.617h12.0828c1.1204 5.7408 3.3791 11.074 6.5315 15.7558l-8.5475 8.5475 11.75 11.75 8.5494-8.5493c5.182 3.4885 11.2748 6.0724 17.5216 6.712-.3013-.0308-1.2892-1.6565-1.5835-2.193-2.5424-4.6349-3.9033-9.8696-3.9033-15.2722 0-16.3149 12.3638-29.9871 28.5721-31.619-.8701-1.6765-1.8396-3.3428-2.9154-4.8948-1.446.8518-3.2124 1.0052-4.8773.407-5.157-1.8525-7.2622-9.9376-9.0837-14.741 5.0314 1.0369 13.3479 1.8338 15.9947 6.6316.8509 1.5424.982 3.3023.3791 4.8601.1815.2453.363.4988.5441.7591z"/><path id="_380086648" d="m106.451 82.4008c16.2143 0 29.3612 13.1469 29.3612 29.3612s-13.147 29.3612-29.3612 29.3612-29.3612-13.1469-29.3612-29.3612 13.147-29.3612 29.3612-29.3612zm-19.8736 44.4329c1.8603-3.6582 2.4586-5.2371 6.2383-7.5979 1.2447-.7774 3.4642-1.8815 4.7908-.7047 1.6801 1.4911 3.4824 3.7081 5.6665 4.2415 2.3532.5751 4.1638 1.6687 2.9438 4.3254-.3847.8374.8205 1.9189 1.1719 2.9397.5804 1.686-.0049 2.6101-3.0026 3.642-.3884.1336-.5738 1.5419-.6892 2.8712-5.6109-.618-10.8425-3.1149-14.8812-7.1536-.8089-.8089-1.5559-1.6655-2.2383-2.5636zm34.5305 5.11-1.7293-7.4111c-.0795-.3404-1.1494-.6101-2.2191-.8798-2.1102-.5322-4.2202-1.0643-3.8661-3.4738.1578-1.0732 1.2543-1.9337 2.6491-2.5934 2.2357-1.0575 8.0562-2.5259 10.6774-2.628 1.2236-.0475 2.7072 1.563 3.9439 3.1948-1.1139 4.2168-3.3265 8.0939-6.4775 11.2449-.9324.9325-1.9288 1.7825-2.9784 2.5464zm9.5003-26.3997c-.6662.532-1.3812.9276-2.0645.9139-1.2235-.0246-2.0694-.9471-2.0168-3.5597.0092-.5987-1.1507-1.1365-1.6751-1.1471-.2578-.0038-.4463.3807-.582.5767-.4715.6809-1.0658 1.539-2.3878 2.3009-1.4777.8516-3.5961-.1067-4.3979-1.4977-2.6198-4.5452.0468-4.2016-6.7368-7.5346-3.1028-1.5252-4.5784.8518-7.0885 2.3905-1.4563.8928-2.7299.2703-3.6915-.9537-1.8146-2.3092.2982-4.6397 3.2419-6.9526 1.401-1.101 2.9091-2.1233 4.3138-3.2353 6.2421.2652 12.1236 2.8417 16.5633 7.2814 3.1938 3.1938 5.4232 7.1338 6.5219 11.4173zm-39.746-13.2516 7.3774 5.7711c1.6782 1.3126.7644 4.3035.5394 6.2392-.22 1.8914-1.9979 2.6915-3.7549 2.0557-.6601-.2388-.7715.0986-.582.6805.2303.7067.4673 1.4342-.0438 2.4011-1.1271 2.1328-8.7097 2.3924-12.8862 2.4929-.046-6.6966 2.5681-13.0707 7.3036-17.8062.6521-.6522 1.3356-1.2639 2.0465-1.8343z"/></g></g></svg>